/* XPM */
static char *fa147796f4314875ef2a896335b12f87an7dNDvNOVE07lUv[] = {
/* columns rows colors chars-per-pixel */
"64 64 196 2 ",
"   c #010106",
".  c #03010C",
"X  c #09070F",
"o  c #06090D",
"O  c #09090F",
"+  c #060211",
"@  c #0A0514",
"#  c #060813",
"$  c #0C0915",
"%  c #060219",
"&  c #0C051A",
"*  c #0E0A19",
"=  c #110E16",
"-  c #11071C",
";  c #110D1C",
":  c #0E1115",
">  c #111216",
",  c #14111E",
"<  c #19141E",
"1  c #17191D",
"2  c #191A1F",
"3  c #060023",
"4  c #0B0025",
"5  c #0F0B20",
"6  c #0D0029",
"7  c #100724",
"8  c #140E22",
"9  c #190D21",
"0  c #12022D",
"q  c #170D28",
"w  c #190F2A",
"e  c #131722",
"r  c #141420",
"t  c #161221",
"y  c #191222",
"u  c #191123",
"i  c #181423",
"p  c #191523",
"a  c #181422",
"s  c #181520",
"d  c #1A1325",
"f  c #1B1225",
"g  c #1A1126",
"h  c #1E1226",
"j  c #1B1725",
"k  c #1A1625",
"l  c #191626",
"z  c #1C1526",
"x  c #1A1524",
"c  c #1B1823",
"v  c #191820",
"b  c #1C1922",
"n  c #1C1827",
"m  c #1D1927",
"M  c #1C1826",
"N  c #1E1B26",
"B  c #1D1B26",
"V  c #1C1C26",
"C  c #1F1C27",
"Z  c #1D1C24",
"A  c #1C1926",
"S  c #171329",
"D  c #1D1628",
"F  c #1E162B",
"G  c #1C152A",
"H  c #1E1A29",
"J  c #1F1B29",
"K  c #1F1B2A",
"L  c #1E1829",
"P  c #1A1D29",
"I  c #1F1D28",
"U  c #1E1A29",
"Y  c #160532",
"T  c #190633",
"R  c #170A35",
"E  c #1A0A36",
"W  c #1D0D39",
"Q  c #1F1135",
"!  c #1F1C31",
"~  c #1F103B",
"^  c #211C27",
"/  c #20172C",
"(  c #231B28",
")  c #201C2A",
"_  c #201C2B",
"`  c #211D2B",
"'  c #231A2E",
"]  c #211D2C",
"[  c #231E2D",
"{  c #241D2F",
"}  c #211D2C",
"|  c #200F39",
" . c #261E30",
".. c #221D32",
"X. c #291D33",
"o. c #21113E",
"O. c #281A3D",
"+. c #24252A",
"@. c #25212F",
"#. c #24202F",
"$. c #24212E",
"%. c #28222E",
"&. c #2B282F",
"*. c #292A2F",
"=. c #272331",
"-. c #262231",
";. c #292331",
":. c #292632",
">. c #2A2635",
",. c #2C2535",
"<. c #2A2535",
"1. c #2B2833",
"2. c #2A2937",
"3. c #2C2836",
"4. c #2E2B36",
"5. c #2C2835",
"6. c #28253A",
"7. c #2E2A39",
"8. c #2E2D3B",
"9. c #2E2938",
"0. c #322B3B",
"q. c #312E3B",
"w. c #302C3A",
"e. c #220A44",
"r. c #23064D",
"t. c #260E48",
"y. c #251541",
"u. c #271843",
"i. c #2B1A46",
"p. c #241149",
"a. c #2E1F4A",
"s. c #260A51",
"d. c #2A0C54",
"f. c #2B1057",
"g. c #2E1259",
"h. c #331B55",
"j. c #32155D",
"k. c #361860",
"l. c #3A1C64",
"z. c #3E236A",
"x. c #40226A",
"c. c #6F38B0",
"v. c #763FB7",
"b. c #6F539E",
"n. c #6E47A4",
"m. c #6E49A6",
"M. c #6D45AC",
"N. c #6F49AE",
"B. c #7246AD",
"V. c #754BAD",
"C. c #7B5BA7",
"Z. c #7E5EAA",
"A. c #7241B7",
"S. c #744CB2",
"D. c #7A4DB4",
"F. c #7643BA",
"G. c #7B45BC",
"H. c #7B4CBC",
"J. c #7C53B5",
"K. c #7950B8",
"L. c #7F5ABA",
"P. c #773DC7",
"I. c #7B3DC4",
"U. c #7B3EC9",
"Y. c #7742C6",
"T. c #7C42C6",
"R. c #7E4BC2",
"E. c #7E44CB",
"W. c #7E4ACC",
"Q. c #7F47D0",
"!. c #7F49D2",
"~. c #8156B9",
"^. c #845ABC",
"/. c #8060AC",
"(. c #834CC4",
"). c #884EC7",
"_. c #8245CC",
"`. c #824ACE",
"'. c #884ACF",
"]. c #8050C6",
"[. c #8158C0",
"{. c #895FC1",
"}. c #8552C9",
"|. c #8B56CD",
" X c #8346D1",
".X c #854CD2",
"XX c #894DD4",
"oX c #874FD8",
"OX c #8B4ED9",
"+X c #8551D2",
"@X c #8A51D5",
"#X c #8D52DA",
"$X c #9052D7",
"%X c #9254DC",
"&X c #8E60C3",
"*X c #9457E2",
/* pixels */
"* . . + . . * . j m J @ ; 7.;.) , . . X . . # . v m ^ @ ; 3.;.) $ . . . + . . # V Z m @ ; w.1.( ; . . + . + $ + J J ) $ * 7.<.[ ",
". . p m ; $ ; ; =., * . ; #.; + . . p ) ; @ * ; =., * . ; #.; + . + e P , # $ e ;., * . < ;.; + . . p ) ; $ * , <.t * . ; =., @ ",
". J 3.#.m ; * ; j . . . ; t . . + [ 0.,.J ; * y z . . + ; y . . # P 8.2.l * * t j + + + ; y . . + [ w.<.J ; * p m + . + ; t . . ",
"; ) ; . $ * . . . . ; $ @ @ . + 8 { 8 + * * . + . . ; ; + + . + t j t $ + & $ . . + 8 ; @ @ . @ ; [ , . * * . + . . ; * $ $ . @ ",
"* t + . , m ; ; . $ ) ; . @ . + ; g + + 8 / ; & + - ' ; + + + + 8 * + + ; D g & + ; X.9 + @ + @ ; t + . t J ; * . * [ ; + $ . + ",
". ; j ) #.) j ) @ $ t @ $ j * + + ; g D  . .D g + & y $ & z ; + + ; g J {  .' g + - f @ - / - @ . ; t j #.{ m j @ $ t $ * m * + ",
". + t ) , $ ; p * . . . ; J ; * . @ p m ; # ; , * . . . ; m ; * . @ , v , $ = < ; . . . ; ( ; ; . + t J ; $ ; , * . + + ; ) ; * ",
"J @ * j $ $ m =.p . . + $ * . ; v # , 2 X o Z +.<   . o $ $ . = , = , , * O < &.b     . = = . = p $ , j $ $ J =.p . + $ ; * . ; ",
"$ $ . . @ . + , . p J $ + $ ; p X o X     o $ $ . $ 1 > o   O 1 $ . . o o   o $   > Z > . o > < $ + + + . . $ ; . t m * + + * j ",
"* m p $ $ @ + $ #.7.[ ; t j ; @ e c e * X X # * Z :.$.* = I v . < m p $ . X # # #.#.Z < < c < # ; j j $ . @ $ $ =.7.[ , t p * $ ",
", ;.[ $ @ $ $ $ , j $ . ; J t * F ..! t % + & 5 G F 8 + 5 ..G + 8 ....- + & 8 & ..G 5 & 8 F S + S =.#.* + * ; $ t j * + t J t ; ",
", J ; . . $ ; p + ; $ . . . . + 6 Y Y 4 3 4 0 Y 4 3 3 3 6 4 6 0 6 T Y 4 3 6 0 0 4 4 3 3 3 6 6 3 8 p t $ + * ; ; + ; $ . . . . + ",
"$ @ . . + @ $ p $ t ; . + $ * q t.s.s.r.s.g.j.g.j.d.d.g.d.r.s.j.d.d.r.d.d.d.g.j.f.g.g.d.s.s.s.p.7 . . + $ $ * t $ t ; . + $ * ; ",
". . . $ ; @ . $ m j * $ J ;.#.O./.^.J.J.~.^.^.J.~.^.~.D.J.{.^.V.&X~.J.~.^.~.J.~.^.^.J.J.L.L.J.b.0 . . $ * + + ; j j * $ J <.[ J ",
". ; j j t $ . $ <.) $ @ j J ; 6 J.).).(.(.).(.G.G.G.G.G.(.|.).v.).).).(.).).R.G.R.F.A.G.R.].H.m.0 * , j t $ $ ; ;.#.; $ j ) ; . ",
". =.w.) t ; ; ; $ + . . $ ; $ 0 V._.'.`._.`._._.'.T._.$X$X_._.XXI.XXXX_._.XX@XE.`.`..X+X+XW.W.K.Y J 3.;.m , ; ; $ * . . * , $ . ",
"+ J j + + + . . + . $ $ $ + . Y D.`..XXXXX.X.X.X`..XXX.X.X`..X@X.X.X.X@X@X.XXXXX`..X.X+X`.W.`.^.Y [ t + & $ . . . . . , ; . . @ ",
"* ; $ $ j =.) j . t 3.t . . . 0 D.E.`..X.X`.`..X`.`.`..X.X.X`.`..XQ.!..X.X.X.X.XW.W.W.`.`.`.W.K.o.t + + j =.) j . p ;.p . . . . ",
". . ; m p t j t . . $ + * j ; T S.E.`.`.`.`.`.`.`._.E.`..X.X`.T.Q.Q. X X_..X.X.X`.W.W.`.'.'.E.B.6 + * j S t j j . @ $ . @ b p . ",
"* * J =.; $ p j <.. . $ J J * W S._.`._.E.`.`.`._.`.`.`..X.X_.T.E.Q. XE.E..X.XW.E.`.`.`.'.'._.B.Y & [ 7.t * t p #.@ . . p m , $ ",
") + + $ . * J j ; . $ ; $ . . o.S.`..X`._..X.X`.E..X@X.X`.`.`.E.E. X XQ._..X.X_.T..X@X.X`.`._.S.y.+ + * $ * j j , . . ; $ . . p ",
"+ . + + . . * * . $ [ ; . * * W S.`..X`.`..X.X_.T..X#X.X`..X.X`.E..XXX X XXXXX_.T.XX@XXX`.`.`.D.Y + + + . + * ; . * j t @ X $ < ",
". J =.j * + + * =.<.w.t ; #.t 0 B.`.XX.X`.XX.XE.E..XXX`.`..X.X_.E..XoX.XXXOXXX_._.XXXX_._.XXXXD.T [ [ t * + + ; [ w.<.t , ) p . ",
"j ;.t . + $ $ * j * $ . + t ; W B.`.@X.X.XXX.XT._..X`.E.`.@X@XE.U..XOXXXXX#XXX_._.XX`._._.@XXXD.i.<.8 . & * + $ ; , $ . . < p @ ",
"$ ; ; + + ; j t * + + . + + . 0 D.`..XXXXX.X`._.E._.`.`.`._.`.`. X X.XOXXXXX X_.`._._.'.'.'.`.D.T j t + + * t t ; . @ . . . . . ",
"; @ . . $ * * * * ; t + * j , y.D.`.`.`.`._.E.E.`._._.`..X.X`._. X X X X_._._._._._._.`.`.`._.D.T + . . $ ; t t ; ; t @ @ m p p ",
". . . $ * + + ; [ [ J @ t 3.J o.~..X.X`.`.`.`.`..XE.T.E..X.X`.E..X.X.X X X X X.X_._._.`.`.`._.D.T + . $ & + . + m m j + * 3.) , ",
"+ ; [ <.J * * m [ j * . , =.; 6 ~..X.X.X.X.X.X.X`.E.T.E.`..X`.E.oXoX.X.X.X.X.X.X_._._.`.`.`._.D.0 ; F =.J 8 ; J J ; $ . $ #.; . ",
"$ ) 7.#.; $ $ $ $ . . . $ * . 6 D.E.`..X.X.X.X`.E.`.`.`.`.`.`.`..X XXXXX.X.X_.E.`.`.`.'.'.'.`.D.Y [ <.K 8 * * $ $ . + . @ ; . . ",
"@ ; * + + * $ . . + t ; $ . . W S.E.`..X@X@X.X.X`..X.X.X.X.X.X.X!. XXXoXXXXX.XW.`.`.`.'..X'.`.D.W j ; + + & + . . . j , X . . @ ",
"* $ $ ; j [ J t @ ; J ; * * + W D.`..X.XXXXX.X.X`.`.`..X.X.X.X.X.X!. X.XXX.X.X.XW.W.`.`..X`.W.D.0 $ $ * G =.=.) @ * J ; X # . X ",
"$ $ ; [ [ p ; p + $ $ . ; =.t Y D.E.E.E._.`.`.`.`.E.T.E..X.X`.E.E.E.E.E.E.W..X.X`.E.W.W.`.`.W.S.Y * S [ [ t ; t . + $ . $ #., . ",
"* * [ =.$ . j =.[ ; . + j t $ Y M.`..XE.T._..X_._.XXXX.X.X.XE.T..XE.E.T.U._..XXX_.XX@X`.W.`.W.N.W ; [ =.& + t [ m @ . @ < , * * ",
"t + . + * t j ; + $ + + * $ $ W S..X.X`.`.@XOX_._.XXXX.X.X.XW.E.P..X#XXXOX%XOXT._.XXXX`.`.`.W.S.o.@ . + * t t * # + @ $ @ . X * ",
"$ ; $ . + $ $ ; ; J J , ; * * W D.W.`.W..X#XXX_._.XXXX.X.X.X.XW.U.#X#X_._.%X%X_._.XXXX`.`.`.`.S.Y ; $ . + & $ ; * p m t * $ ; , ",
"+ =.=.; + . . , [ 7.[ ; t j t Y S.E.`.`..X@XXX_._..XXX.X.X.X.XW.E.XXXX_._.OXOX_._..XXX`.`.+X.XS.0 <.=.* + . . , J #.) , , m p $ ",
"p =.j $ * ; + * $ p * . + ; ; Y S.W.XXXXXXXXXX`._.`..X`..X.X.X`.E. XoX*X*XXX_.T._..X'.W.`.+X.XS.o.<.j + ; ; $ * ; t ; . . ; ; . ",
"t , + . @ ; ; , . ; $ . . + * W S.W..X.X`._._._._.`..X`.`..X.XW..XE. X#X#X_.T._._.`.`.W.`.+X`.S.y.S + . $ 8 ; t . $ $ . . . $ $ ",
"@ . + + . . ; p , m , $ * ; t o.D.W.`.`._.T.T._._.`.`._.`..X.XW.#X XE.E.T.T._.XX_.`.`.E.`.+XW.N.Y + + + . + ; p , , ; $ * < p < ",
"@ . + t $ + $ + #.J * * [ <.) o.[..X`..XXX.X_._._._.`.E._.`.W.E..XoXoX.X XXX.XT._.`.`.T.`.+XW.M.Y . $ t $ + $ + 3.m $ ; $.1.) * ",
"+ ; ) #.j * ; j p J * . , [ + 6 K.W..X@XXX.X_._..X_._.`.`.`.W.E..X X.XOXOX.X_. X`._._.`.@X.XW.S.0 t =.<.j @ * c J , ; . $ ) $ . ",
"$ ) 7.[ ; @ + + . . . . * $ . W D.W..XXXXXXXXXXXXX`.`..XXXXX.X.X.X X XOXOX.X XXX`._._.`.@X+XW.D.W F =.F S ; $ . . . . + # $ . $ ",
"* ; $ . . ; * . * $ J j $ . . Y D.W.`..XXXXXXXXX_._.`.`..X.X.X.X.X X XXXXX.X.XXX.X`.`.'.+X+X`.D.T ; $ . + ; * . ; $ J p # . . . ",
", ; $ $ c 3.;.j . . j * . ; ; Y D.W.`.`.`..XXX.X_._.`.`.`..X.XW. XE. X X.X.XXXXX`..X`.`.'.+XW.S.W t ; ; j ..#.J . $ m $ . , @ . ",
". . t [ j $ * j $ + ; @ $ [ J T D.W.`.E._..X`._._.XXXX.X`..X.XE.E.E. X X_..XXXXX_..X'.`.`.`.W.S.4 + * F J ; $ ; . . $ . ; ;.m ; ",
"t ; j #.j $ ; <.[ $ @ $ , t @ T S.`..XE._..X`.T._.XXXX`._.`.W.T.T.Q. X X_..XXX X_..XXX`.W.`.W.S.o.8 S ..J * , <.) + + @ , v @ # ",
"j @ . . . @ * t . . . . * $ . y.S.`..X`.`.XXXX_.I.XXXX`.E.`.W.Y.E. X.X X.XXXXX_._.XX@X`.`.`.W.S.W $ . + . . * ) $ . . . @ # . $ ",
"+ $ * $ $ $ $ + * <.7.; ; ; + u.B.`.XX.XXX#XOX_.T.XX#XXX`.XXXXE.T..XXX.X.XXXXX_._.XX@X'.W..X`.S.T * $ $ * * + . ; ) w.t @ , ; , ",
"t 3.<.; @ + @ * =.#.t @ ; J j 6 D._.@XXXT.XX%XT.`.`._._.XX@XXX_._.P..X@XE.`.@XE.T.'.`.T.`.#X@XS.y.7.<., . @ ; ; ;.[ t $ , #.m + ",
"; m ; . . @ @ * @ ; $ . . * ; 6 V.G.).).G.(.(.c.G.(.).(.R.(.G.G.(.F.(.|.(.(.(.F.G.}.}.G.F.R.R.n.| j ; + . $ ; ; $ ; * . . $ * . ",
", ; + . * ; ; p . $ * . . $ ; 0 Z.J.^.{.^.^.^.J.S.J.^.~.~.^.^.^.~.V.J.{.^.J.J.J.V.^.^.J.J.^.^.C.Q ; @ + $ , p p . * ; . . + * $ ",
". . . . $ + + ; p j , $ ; j m w e.r.r.d.r.r.d.g.j.j.j.g.l.z.x.l.d.r.s.g.d.r.d.j.j.k.j.g.j.x.x.h.% . . + $ $ $ * t j j ; ; j J j ",
". $ ; , ; . . ; <.m $ $ p #.J ; % 4 Y Y 0 3 4 R a.o.0 6 W y.W 6 3 6 Y T 0 3 4 E i.o.0 6 W u.W 6 + @ ; j ; + + * =.J ; * j =.[ ; ",
"@ J <.=.m ; $ p m * . . ; j ; . & ! 6.6...S * S F 8 % % 5 S * + + G ....F 5 & 8 G 5 + + * S * + * j <.<.m ; ; t j * . . * p * . ",
"+ j m ; * $ + @ . @ @ @ @ + . . . c c , , * . X . X X X # # . . # ) ) , p , # # . . . . # @ . . $ t j , * * $ + + + @ @ @ + . . ",
"$ p ; . $ ; $ . . ; ) m $ . . X O 2 :   O : X o o > Z 1 $ o .   X b =   O = X o . > Z 2 $     . ; t ; . + ; * . . * J m * . . @ ",
"* $ $ ; ) <.#.t . ; t $ @ ; ; @ * # # > $.*.+., . $ * O # , =   = $ # = ^ 1.+.<   = , $ X = = X ; * $ ; ) <.{ p . ; , @ + * * + ",
". $ J =.t + $ m m $ . . p #.j @ . @ Z #.< X $ m , # . . , m p $ . $ ( %.< @ = ( z $ . . y #.z @ . $ J =.t + * J j @ . . j [ t . ",
"t ; , m , @ ; ;.; . . + ; ; * * y ; 8 z ; + 8 ,.8 + . + ; ; ; ; g ; 9 D 9 @ 9 ,.; + . + ; ; - ; y ; , j , + ; <.* . . $ ; * $ * ",
"p + . . @ $ * , + * t t $ . + ; z + + + + & ; g & - 8 8 - + + - z + + + @ & ; g + ; z g & + + 8 j + . . + $ ; t + ; j t + . + t ",
". ; p ; + + @ @ m ) m t t J t $ + 8 g * + + @ & 8 { ;.D ; t y ; + ; g ; + + @ $ f { { g 9 z y & . ; j * + + $ $ m [ ) t ; j p ; ",
"t <.7.p + $ ; * J J , + * J j @ y ,.7.y + @ ; ; z ( t + * J z * t <.7.y + $ ; * J ) t + $ m j $ t <.7.t + $ ; ; j J p $ ; J j $ ",
"J j * . . $ ; * $ * $ . . . $ $ J j * . . $ ; * ; $ . . . * * . J j * . . @ * * $ * $ . . . $ $ J j * . . $ ; * @ * * + . + $ $ ",
"$ + + $ * * , p $ + + $ @ . . . @ . . # = ; , p @ . X # @ . . @ # X . # $ * , e $ X . @ # . . . $ + + $ * * , j ; @ . @ @ . . $ "
};
