/* XPM */
static char *_cbfcc4ae60741eda2f5ff3f6e4fe602paLAuO7hOhjj8P0p[] = {
/* columns rows colors chars-per-pixel */
"64 64 156 2 ",
"   c #2E4C14",
".  c #2F5518",
"X  c #345117",
"o  c #36561D",
"O  c #3A571D",
"+  c #355A1D",
"@  c #3C5A1F",
"#  c #365D23",
"$  c #3D5D22",
"%  c #3E6225",
"&  c #3D642B",
"*  c #40591F",
"=  c #415E24",
"-  c #415F29",
";  c #436126",
":  c #45642A",
">  c #49662C",
",  c #45692D",
"<  c #4B692E",
"1  c #50692F",
"2  c #496731",
"3  c #456C32",
"4  c #4D6C32",
"5  c #516E33",
"6  c #516F39",
"7  c #4D7135",
"8  c #4C733A",
"9  c #527135",
"0  c #537135",
"q  c #527034",
"w  c #537036",
"e  c #527136",
"r  c #507236",
"t  c #537236",
"y  c #537237",
"u  c #517035",
"i  c #547035",
"p  c #547036",
"a  c #557136",
"s  c #547137",
"d  c #557137",
"f  c #577036",
"g  c #547236",
"h  c #547337",
"j  c #557337",
"k  c #567237",
"l  c #537136",
"z  c #587036",
"x  c #587137",
"c  c #597137",
"v  c #557238",
"b  c #547338",
"n  c #567238",
"m  c #577338",
"M  c #567339",
"N  c #577339",
"B  c #537539",
"V  c #557438",
"C  c #557439",
"Z  c #567438",
"A  c #577539",
"S  c #57743A",
"D  c #56753A",
"F  c #57763B",
"G  c #55743A",
"H  c #597238",
"J  c #5A7339",
"K  c #5B7339",
"L  c #587439",
"P  c #58743A",
"I  c #59753A",
"U  c #58753B",
"Y  c #59753B",
"T  c #5B743A",
"R  c #58763A",
"E  c #59773B",
"W  c #5C743A",
"Q  c #5D753B",
"!  c #59763C",
"~  c #58773C",
"^  c #5A763C",
"/  c #5B773C",
"(  c #5A773D",
")  c #5B773D",
"_  c #5D763C",
"`  c #5E773D",
"'  c #5F773D",
"]  c #5E773E",
"[  c #59763B",
"{  c #55793D",
"}  c #59783D",
"|  c #5A783C",
" . c #5A793D",
".. c #5B783E",
"X. c #5A793E",
"o. c #5B7A3F",
"O. c #5C783D",
"+. c #5C783E",
"@. c #5D793E",
"#. c #5C793F",
"$. c #5D793F",
"%. c #5C7A3E",
"&. c #5D7B3F",
"*. c #5E7A3F",
"=. c #5B793E",
"-. c #60783E",
";. c #60793F",
":. c #587640",
">. c #547B42",
",. c #5D7A40",
"<. c #5C7B40",
"1. c #5E7A40",
"2. c #5F7B40",
"3. c #5E7B41",
"4. c #5F7B41",
"5. c #5D7C40",
"6. c #5D7C41",
"7. c #5E7D42",
"8. c #5F7E43",
"9. c #5C7C42",
"0. c #617A40",
"q. c #637B41",
"w. c #607C41",
"e. c #607C42",
"r. c #607D43",
"t. c #617D43",
"y. c #607E42",
"u. c #627E43",
"i. c #647D43",
"p. c #617E44",
"a. c #627E44",
"s. c #627F45",
"d. c #667F45",
"f. c #617D43",
"g. c #5D8145",
"h. c #5C834A",
"j. c #628044",
"k. c #638145",
"l. c #638247",
"z. c #648046",
"x. c #648147",
"c. c #658147",
"v. c #668247",
"b. c #638146",
"n. c #658248",
"m. c #668248",
"M. c #668349",
"N. c #658449",
"B. c #67844A",
"V. c #65844A",
"C. c #6A8349",
"Z. c #6D864C",
"A. c #68854B",
"S. c #6D894F",
"D. c #6B884E",
"F. c #6D8B51",
/* pixels */
"K 1 5 c 5 c c 1 K 1 1 5 z Q Q < _ 5 L < 2.5 m > 5 5 L > / 5 L : m 5 2.q > f q f  .5 > < f m m f < > V 4 q V ; q 4 q 5.4 : 4 4 2.",
"-.c _ q.K c c 5 5 > > 1 5 K Q 5 5 5 *.< 4 = > > f f / < L 5 *.f f : > : < 2.m 4 q f V L 5 > > 4 4 4 V 4 q  .<  .q < 4 : <  .q V ",
"5 < 5 _ 5 5 5 5 > = ; < 5 K c 5 5 5 L < < = > < f f / 4 f 4 m f < $ = $ 4 y.m 5 4 5 q f 4 ; = : < 4 V 4 q q : m 4 ; ; $ <  .q q ",
"i.5 5 5 ; = = = > > > 5 K 5 1 1 > = = = > > > = m 5 5 4 4 > > > : ; < > 5 / < q 4 : = : 4 < : ; < 5 q 4 4 > $ : > : < : : q 4 q ",
"d.< ; > < 1 c K 1 f 5 K q.5 = > > > > 5 m / 5 4 a.f : > > < > 4 4 5 m 5  ./ ; < < : ; < m m 5 < q F 2 : < : : < 5 4 m 4 q / < : ",
"_ = @ < f -.C.Z.5 _ L _ i.5 * < 5 / 2.m./ *.L 2.S.m = > > m m a./ m q 5 m.a.$ ; > 4 / y.2.m q m 5.5.: ; < < V  .5.q m q 5.B.< @ ",
"v.4 < L K 5 5 5 < / f f y.< = m < m 5 / > 5 > f v.f = m 5 / m v.m m 5 4 v.2.$ > q m / 2.L 5 5 m 2.5.; : q q  .V 2.5 q 5  .j.< @ ",
"5 = < 2.*.f 5 f > f < < *.< ; y.*./ > m 4 2.5 f f 4 : v.L L > m : 5 q < / 5 $ / a.q : : 4 5 5 5 q / ; 4 5.q q : 4 < V 4 4 m : ; ",
"f = ; 5 5 *.*.> : : > < < > > < L 5 2.y.> : 5 > 5 < : : < f / y.; ; : > 4 4 > ; V m / / : ; 5 = 5 4 < < < 5  .5. .; : 4 < 5 4 o ",
"5 < 5 5 > 4 L / < > : < 4 4 5 5 > = 5 K : = > > 5 5 5 5 5 5 m L > > > : > > 4 4 : : < 5 > ; : $ : < < < < < 4 4 < $ : < ; > q < ",
"< f 5 ; ; ; < *.< ; = > 5 q 4 < > = 4 / 5 : > < < 4 5 < ; = : < L 4 : : 4 m f 5 = : > 5 L 4 = : < 4 5 4 < : > < m > : : ; < q 4 ",
"*.j.q : 5 5 5 y.f < < V j.j.V < 5 > 5 y./ < > 5 / *./ 5 : ; 5 / a.4 = > 2.m.L : < < 4 q a.V $ < /  .V 5 > : 4 q B.m : ; 4  ./ 4 ",
"f *.5 : 5 < > f L < : 4  . .5 > < > < L / < : < m / L 5 > : 4 L *.4 : > L 2.m > 4 > < > / V $ 4 V V V 5 < > < 5  .q : ; q 5. .q ",
"; 4 q < > ; ; < L < $ = : < < < : > > < m 5 : < ; > < < > : ; ; 5 5 4 > : : 4 V 4 ; 4 ; 4 L = 4 : < 4 4 4 < : : : m 5 : > < < q ",
"4 5  .5.V q q 4 5.f < < 4 5 V *.< m 4 > f m < 4 4 5 5 m / m 4 > 4 5 5 < ; : 4 V L > *.> : 2.> < : : < 4 q q 4 > = V m : : : : 4 ",
"f ; > f V  .V @ < < < 4 4 < 4 q f a.f : 5 m < > m 5 4 5 L L 5 > 5 4 < 4 f m 5 > y.4 B.4 $ *.< ; q 4 4 5 V 5. ./ $ q < $ 4 m 4 V ",
"4 5 5 4 4 : > m : > 4 5 f 5 4 < q ; < V 4 ; < 5 < f < f : f > < 4 = : q 4 < < < 4 < < 2 > ; : 4 4 < B 4 4 B < 4 4 $ ; 4 4 7 7 4 ",
"< f 4 > > > < L / / f 4 4 5 5 5 q ; : q f f V q < f < 4 = < : < j.m q q < 4 q m < ; ; 2 V V q q < , 7 : : 4 : , <.7 7 V 7 4 7 4 ",
"< L 5 : > 5 f / < m m 5 5 m 5 ; 5 < 4 q 5 f V 5 < j 5 4 ; < < q q q V V 4 5 q < : : : q / V q 4 < < B , ; , : 4  .7 q r < , 4 4 ",
"5 2./ < 5 L L L = 4 5 > 5 *.L : 4 V 5.V : > 4 > < j V f 4 f L 5.$ : 5 4 > q / < < q  ./ 4 : : < , 4  .7 < B 7  .< : , < ; : q B ",
"5 y.2.5 f / f 5 5 m 4 = : *.v./ f L *.f : < 4 ; > q *.V V f  .*.4 4 4 ; $ q x.5.4 V 2.V < : : < : 4 5.V q { q  ., : 4 4 : < { <.",
"5 *./ 5 m m 4 < L / 5 > < / *.5 L 5 4 4 q *.L ; < 5  .q f < q 4  .V q > : m 5.q q 5 4 4 q V V 4 , 4 <.B 7 B < 4 q 7 B 4 : 4 { V ",
"5 L f 5 L f < 5 < 4 4 5 m L 5 : L 4 4 q q V f > 4 5  .< f < q < 5 < 4 5 4 V m : q 5 4 < q  .m < < 4 { 7 4 B < 4 7 4 7 4 : < B 7 ",
"m m 5 f / f 4 m < : ; > 5 L K f q q *. .: = > < f q  .< L 5  .q 5 : ; : < V  .5 q  . .q < > : = 4 4 V 4 7  .7 B , , 4 , : 4 { q ",
"L 4 5 m 5 < 5 4 = 4 > : m f < L : 4 < 5 = > ; 4 V 5 5 q 4 : < f $ = : ; 4 m 4  .< : 4 4 : : : = : B 4 7 q , , , : ; < % : q 4 B ",
"a.5 < 4 : = ; ; > 5 > 4 *.5 : 5 > > @ < < V : = V 4 < 5 < ; $ ; < : < : q V : 4 q ; @ = : 4 4 $ , B , 4 7 % % + 4 : < : < V , , ",
"m $ @ > 4 5 *.v.f m 5 L v.5 = < : q q y.q  .5 f v.5 ; ; > < 4 V m 5 q 4  . .; ; ; ; 4 V q q q < <. .$ $ : : 4 4 { 4 7 4 B g., $ ",
"v.> ; m m 5 L 2.L / m y.A.5 = f < *.5.B.q L V j.A.q = ; 4 V *.v.V m  .V 5.2.; ; > 4 5.j.V q V q N.5.$ @ < 4  .<.o.7 B q <.g., $ ",
"v.< < / L 5 4 < 5 m f / y.< ; 2.V V > q < L 4 q L < : q *.L q 4 4 4  .V  ./ ; : m.q < < < q V 4 V { ; , V q 7 : q 4 V q { <., % ",
"< = > m / / / m : 4 > 4 m > ; 2.f L 4 q ; 4 < q q > : 5 L V q f ; : q 4 q q ; < 2.q 5 4 : : 4 < 4 q ; , B 7 q 4 < : 7 < 4 B : ; ",
"f 4 5 f 5 f m 4 = < ; : f 4 : f > L  .5.; : : V L < : > < 4 L v.: ; > ; 4 5 ; < : 4 5.5.< ; : : 4 q % ; 4 4 { 5.< ; , % : 7 : : ",
"5 4 4 > ; 4 L 5 : 4 = = m m > < ; < > f > < @ @ f 4 < 4 < ; > f 4 : : $ 2 q ; > 2 : < 4 < < > $ : B , < 4 ; , 4 4 : : $ : 7 : : ",
"< L 5 > < > < y.f ; = 4 / m < > > > 4 / / = $ q < / q > 4 > : / F > 2 4 : 4 G 2 - : $ 2.9.= 2 > : 4 7 4 : % : 4 r , % : , , , 4 ",
"v.*.< : 5 f m *._ 4 < L d.*.f 5 < < 4 / 2.4 : f  .a. .5 < > 4 2.V.2 $ 2 8.F.9.- 4 2 : :.9.4 2 2 :.<.{ 7 , , 4 7 g.7 : , B g.o.r ",
"f 5 f 4 = ; 5 f 5 : = > 5 < > < : > : < m 5 : > m 5 f 5 ; ; < 4 G 4 ; : G :.4 2 4 - > 2 6 G : ; F B 7 4 : : : , B 7 : % , { { 7 ",
": : L *.> ; < : L 4 ; : > < 5 L > 4 > : 4 4 : > > = < f > < 4 $ > G 4 ; ; $ ; :.6 : 4 ; 2 :.: > ; : , 4 4 , : % % 7 7 % $ : 4 , ",
"m > 5 2.2.y.L $ m 5 < < < 5 m *.f 2.V < 4 4 4 5 5 : 4  .L *./ : 6 F 2 : 6 6 2 G :.6 9.2 2 :.2 4 > , 4 B { { B 7 % 7 { , ; , 7 7 ",
"f < < f f L f > > > > < 5 5 < > 5 L 5 > < > > 4 / 4 4 5 f L m < 2 2 : 2 :.:.4 2 G s F 2 2 2 : > 7 7 7 7 B B B B : , , , 4 B r , ",
"> 5 f > ; = > L 5 5 5 5 m m 5 < : > : > 5 4 : < 4 5 4 > < > : 4 2 2 4 6 2 2 4 2 2 2 ; 2 4 > 2 ; 4 7 4 , , , , , 7 , : : , 7 4 , ",
"5 *.5 > 5 < > L *.f < > < 5 5 < > > > m v.5.q m = m m 4 5 : = 5 A.F G s : 4 :.6 2 2 $ G 8.s 8.s , 4 7 7 4 , : ; { { { r , : 4 { ",
"; L < < 4 5 y.< > < f f < f f ; > 5 5 / ; f 5 5 q 4 ; f > q 4 / : 2 G 2 G 4 s 2 2 4 4 G 4 2 G 2 B % , : , 7 ; r 7 4 , 4 7 7 4 , ",
"5 y.f f f f y.5 > > > : > L y.L 5 L *./ ; : > > ; *.5.f : / 2.2.2 : 4 ; 2 2 8.F 2 G :.8.2 $ 4 : 2 , <.B 4 7 7 g.4 , , : : , B <.",
"5 *.f f f 5 L 4 f 5 < ; > L *.L f 5 / f 4 4 f > = / m.4 4 m 2.q s : 4 : : 2 V.:.4 G G :.4 > G 2 % 4 g.{ 7 7 7 { , 4 4 , % , B g.",
"5 f 5 5 5 5 5 < L L 5 < f L 5 >  .< 5 >  .L 2.: q 4 m 4 *.4 5 > :.2 :.6 4 2 9.2 :.6 : 4 6 6 9.2 ; 4 B 4 4 r 4 , 4 r B 7 , , 7 B ",
"m 5 f f f f 5 5 > 5 > > / *.5 5 5.5 V > f 4 5 @ L 4 m 5 a.5 q < 6 2 G 4 6 4 F : 9.F 2 s 4 2 6 % > 7 7 7 7 7 B , 4 7 7 , , 7 7 4 ",
"L 4 f 5 5 5 > f = > = = f L 4 L 4 4 / 4 ; $ > = > q *.5 5 4 m 5 > : 2 $ 6 4 G 6 2 6 G :.2 $ 2 $ ; B B B 7 , B B , , % $ : 7 B 7 ",
"*.> 5 < > > = 5 ; 5 : = m 5 : f = : < 4 = > < > 4 5 4 5 : : : 4 - 2 : # :.6 6 G - : : 6 2 : 6 ; > 7 , B 4 % 4 , : : % $ : 7 B 4 ",
"y.> 5 < > > @ 5 : L 4 < 2.f ; q < : $ 4 : / 4 ; D.4 O / 4 ; X < ; G 4 # x.s : 4 s ;   # : 2 G $ F 7 % 7 B % % . , 7 4 , 2 7 4 % ",
"a.@ O 4 5 5.F.y.5 m m v.F.:   < : V 5.F.q q < 5.j.4 $ $ : 4 5.F.4 <.7 B A.{ o $ o B g.<.<.7 , { g.g.# # & & >.g.>.8 2 3 >.g.4 + ",
"j.: < / 4 5 2.f 5 m 5 / m.> $ *.4 q 4  .q  .5 q B.q > 4 q q 5 B s <.7 4 g.r % , 7 7 4 4 B B 7 7 >.>.& & 8 3 8 3 >.8 7 8 >.>.4 # ",
"L : 4  .q f / 5 < q 4 5 / < : y.m q < 4 4 / 5 4  .4 : 5  ./ q 7 4 B 4 4 { 4 % 7 <.7 , 4 4 7 r , 8 { & 2 >.8 8 3 3 7 7 8 >.>.3 # ",
"5 = ; q V  . .4 ; < < < 5 > ; 5 4  . .q : : < 4 4 : ; < q V /  .% , , 4 7 , % , B 4 { o., ; , & 7 8 & , 8 8 8 8 , , 3 3 3 3 3 & ",
"q < < 4 4 4 5 5 : > : > < > : > : q 5.q : $ : < 4 < < > : < 4 V % ; ; , 4 , : , , : { <., % : % 3 3 3 & 3 7 4 >.& & & % & 3 3 & ",
"4 m m 4 ; = 4 2.5 : = > 4 4 4 4 : : 5 4 q ; : : 4 4 5 4 : : < q q : % : 4 7 7 4 : % : 7 4 : : % , 3 8 3 , 3 & 8 8 3 & # , 7 7 3 ",
"f / q > : > f j.L : ; q / L q 4 < $ 4 q 5.: < < q m q 4 > < 5 V <., % , 7 { B , , : ; 7 { 7 % & 8 8 { 3 , 2 # 7 >.7 & & 7 >.{ 3 ",
"A.y.> = 4 V f f / ; : y.B.2.5 ; 4 : V  .j.= < V B.j.V < : < q B <.: % 7 o.g.B % : 7 7 { l.7 + : h.>.>.& 3 8 & { >.8 & & { h.>.3 ",
"> 4 : q = > = < 5 4 > > : > 4 q > $ $ < q 4 > : ; : 4 4 > ; ; : : , , % ; , , , B + % % , r % 3 , 3 3 4 3 2 & & 4 8 4 , 3 3 8 3 ",
": q 5 2.5 / > ;  .f > : : 4 / a.q 5 4 4 4 4 4 < < 4 4 q q 5 < , { 7 , % % , r { { 4 r , , B , 3 & & , 3 3 3 3 & , 3 , & & , 3 & ",
"> q 5 L f 2.4 = < < < < 4 5 f m q V V 4 > < < < 5 4 4 q  . .q < 4 , , 4 4 4 4 7 7 B { , : 7 , : 8 8 8 8 >.>.>.8 3 3 3 2 3 8 8 7 ",
"q 5 < < < 5 4 4 : > 4 5 5 5 < : 4 4 4 4 < : : < 5 4 4 4 5 q 4 , : : , 7 7 , , , , 4 7 , : , , : 4 3 3 3 8 8 7 3 & , 3 3 2 3 3 3 ",
"*.5 < > > ; 4 2.V m 5 > < 5 5 4 4 ; : q V 4 < q 4 4 4 : : > < , V 7 , , , , 7 B , , : 7 7 4 4 7 3 3 2 3 3 3 , & 3 3 3 4 4 3 3 3 ",
"f < 5 < 4 ; 4 L f m q 4 4 m 5 > 4 : : m  .q 4 q < q q > ; : 4 4 r B 7 4 , 4 7 , , : % B { , 7 7 4 8 8 8 3 3 3 3 >.>.8 8 8 8 8 8 ",
"< 5  .> f 5 L < : < 4 4 q / f : < q q 4 < 4 4 < < V / 4 < 5 V B % 4 7 , 4 B 7 : : 7 , B 7 ; 4 , & 3 8 4 , & 3 8 3 3 , 3 3 , 3 7 ",
"5 5.A.> / j.A.> < 4 > = >  .y./ 4 j.m.< ; 4 q ; < V  .m q  .2.{ $ , , $ % { g.{ : g.{ { , % 7 % & 7 >.>.8 8 >.h.3 & & 3 3 4 8 >."
};
