/* XPM */
static char *fdd00d0b52994353f4d722fde0235d82nuc8YBOytYQqmuei[] = {
/* columns rows colors chars-per-pixel */
"64 64 256 2 ",
"   c #002C1D",
".  c #002515",
"X  c #092A1A",
"o  c #032C24",
"O  c #022523",
"+  c #023323",
"@  c #0B342A",
"#  c #043B2D",
"$  c #0C3B2D",
"%  c #033527",
"&  c #113427",
"*  c #043D33",
"=  c #0B3D32",
"-  c #063835",
";  c #153C33",
":  c #213534",
">  c #02432C",
",  c #044233",
"<  c #0C4335",
"1  c #0D4539",
"2  c #0C4B3A",
"3  c #054937",
"4  c #134236",
"5  c #124539",
"6  c #144A3D",
"7  c #1C453A",
"8  c #09533B",
"9  c #12513E",
"0  c #23473D",
"q  c #004716",
"w  c #163D42",
"e  c #064943",
"r  c #154D41",
"t  c #1B4D42",
"y  c #184847",
"u  c #095446",
"i  c #1C5344",
"p  c #175546",
"a  c #0F5856",
"s  c #254C43",
"d  c #274B45",
"f  c #23564A",
"g  c #295649",
"h  c #295C52",
"j  c #355C54",
"k  c #33514C",
"l  c #286255",
"z  c #366459",
"x  c #2B634C",
"c  c #18746E",
"v  c #347367",
"b  c #1E5B60",
"n  c #45635D",
"m  c #486B63",
"M  c #566B66",
"N  c #52746B",
"B  c #59766C",
"V  c #5A7A74",
"C  c #4D766E",
"Z  c #667673",
"A  c #4D5B5A",
"S  c #14867A",
"D  c #278377",
"F  c #6F827C",
"G  c #5D8177",
"H  c #1C948A",
"J  c #039E97",
"K  c #199A98",
"L  c #128F84",
"P  c #278B87",
"I  c #289489",
"U  c #2F9694",
"Y  c #00A595",
"T  c #03A49C",
"R  c #0AA39B",
"E  c #02AA9C",
"W  c #07AB9A",
"Q  c #16A79D",
"!  c #12B49E",
"~  c #28AA9D",
"^  c #0B9DA1",
"/  c #119DA5",
"(  c #0CA5A2",
")  c #03ACA3",
"_  c #0BABA3",
"`  c #06A8A7",
"'  c #13ACA5",
"]  c #19ABA8",
"[  c #09B4A9",
"{  c #17B4A9",
"}  c #07BBB6",
"|  c #18BAB5",
" . c #1CABB1",
".. c #24A8A6",
"X. c #25B5A9",
"o. c #24B8B6",
"O. c #31B3AF",
"+. c #2197A5",
"@. c #579087",
"#. c #74928C",
"$. c #7CAB9F",
"%. c #02C5B6",
"&. c #01CAB6",
"*. c #02C6BC",
"=. c #0BC4BB",
"-. c #02CBBC",
";. c #0BCCBC",
":. c #0CC4B3",
">. c #13C3BB",
",. c #1ACBBD",
"<. c #17C6BA",
"1. c #01D2BE",
"2. c #09D3BC",
"3. c #18D4BC",
"4. c #13C5AE",
"5. c #27C5BA",
"6. c #28D6BD",
"7. c #18BFC2",
"8. c #2ABCC1",
"9. c #03C6C3",
"0. c #03CCC3",
"q. c #0ACCC2",
"w. c #0AC9C7",
"e. c #13CCC4",
"r. c #1CCBC4",
"t. c #14CDCB",
"y. c #19C8C7",
"u. c #01D3C4",
"i. c #0CD2C4",
"p. c #06D6C9",
"a. c #13D2C5",
"s. c #1AD3C5",
"d. c #14D3CB",
"f. c #1CD4CC",
"g. c #17DCC8",
"h. c #18D3D3",
"j. c #0BD1D3",
"k. c #27CAC7",
"l. c #35CCCB",
"z. c #27D5CB",
"x. c #26D8D3",
"c. c #33D5D1",
"v. c #16F4DC",
"b. c #24EAD8",
"n. c #07FDE9",
"m. c #14FCE4",
"M. c #1DF6EC",
"N. c #14FDED",
"B. c #1BFCED",
"V. c #17F8E5",
"C. c #0EFEF3",
"Z. c #08FEFA",
"A. c #14FEF4",
"S. c #1BFDF3",
"D. c #1BFEFB",
"F. c #17F9F7",
"G. c #17ECE5",
"H. c #29E9E6",
"J. c #38EBE5",
"K. c #24FAED",
"L. c #27F8EA",
"P. c #37F7E8",
"I. c #23FCF3",
"U. c #2AFAF2",
"Y. c #24FEFC",
"T. c #28F7F6",
"R. c #35F8F5",
"E. c #2BEEF0",
"W. c #34DDE0",
"Q. c #41D3C1",
"!. c #75D3D4",
"~. c #78E5DC",
"^. c #6EE5DF",
"/. c #44F9EB",
"(. c #58F5E3",
"). c #77E7E4",
"_. c #6FF0E6",
"`. c #58F0DC",
"'. c #829A94",
"]. c #969197",
"[. c #8AA39C",
"{. c #93A29F",
"}. c #96ACA7",
"|. c #97B2AD",
" X c #9CB5B2",
".X c #96B9B6",
"XX c #91AAAB",
"oX c #A5B9B7",
"OX c #AAB0B1",
"+X c #CBBEB6",
"@X c #A7C3BA",
"#X c #BCC6BC",
"$X c #97C0B8",
"%X c #C6C8BD",
"&X c #B4BDC6",
"*X c #CFBCC8",
"=X c #EBBDD7",
"-X c #88DCD7",
";X c #99D7D9",
":X c #94D2CB",
">X c #B6CDC7",
",X c #BAD4C7",
"<X c #AAD6D8",
"1X c #BBD5D4",
"2X c #AECFCE",
"3X c #82E3DB",
"4X c #9BE5D5",
"5X c #95DBE5",
"6X c #B0D7E4",
"7X c #8AF7F5",
"8X c #99F9F7",
"9X c #8FEEEB",
"0X c #A4FAFB",
"qX c #B5FCFC",
"wX c #B6EEF2",
"eX c #B2ECD4",
"rX c #C6C8CA",
"tX c #D3C4CB",
"yX c #C9CAD2",
"uX c #D6C8D5",
"iX c #C5D7D8",
"pX c #D6DADA",
"aX c #C6DDCB",
"sX c #CAE4DF",
"dX c #CFD9E3",
"fX c #DDECEA",
"gX c #DBE9E6",
"hX c #DBF4EC",
"jX c #C8FAFC",
"kX c #DAFDF9",
"lX c #D0F1EF",
"zX c #E0EFEC",
"xX c #E9EBE8",
"cX c #F5E8EA",
"vX c #E5F7EC",
"bX c #F4F6ED",
"nX c #F3ECF2",
"mX c #FFECFD",
"MX c #FBE9F7",
"NX c #EBF4F3",
"BX c #EBFAF5",
"VX c #EDFEFC",
"CX c #E5F8F6",
"ZX c #F4F3F4",
"AX c #FCF5F6",
"SX c #F4FAF5",
"DX c #FBFBF5",
"FX c #FDF5FC",
"GX c #F5FDFD",
"HX c #FEFEFB",
"JX c white",
"KX c #FFFEFF",
"LX c #FEFEFE",
"PX c #FEFDFE",
"IX c #F6F2FA",
"UX c #E6D0D8",
/* pixels */
"JXJXJXJXJXJXJXJXJXJXJXJXJXJXJXJXHXHXHXJXHXFXJXPXHXJXHXJXJXHXJXHXJXJXFXJXJXJXJXPXJXJXJXHXJXHXZXJXJXJXJXJXJXJXJXJXJXJXJXJXJXJXJXJX",
"JXJXJXJXJXJXJXJXJXJXJXJXJXJXJXJXDXJXJXJXJXJXJXIXHXJXHXJXPXFXPXHXPXPXFXPXPXFXPXPXZXJXJXPXJXJXSXFXJXJXJXJXJXJXJXJXJXJXJXJXJXJXJXJX",
"JXJXJXJXJXJXJXJXJXJXJXJXJXJXJXJXHXJXJXZXHXJXGXGXJXJXJXJXJXJXJXJXJXJXJXJXJXJXJXJXGXGXFXFXAXJXJXJXJXJXJXJXJXJXJXJXJXJXJXJXJXJXJXJX",
"JXJXJXJXJXJXJXJXJXJXJXJXJXJXJXJXSXHXHXHXJXGXfXCXfXfXNXzXgXfXgXzXvXgXzXgXfXvXfXfXCXfXNXJXJXJXJXGXJXJXJXJXJXJXJXJXJXJXJXJXJXJXJXJX",
"JXJXJXJXJXJXJXJXJXJXJXJXJXJXJXJXHXJXJXPXZX{.0 s d s j g s g 0 k j s d s g j d d 7 0 F NXJXJXJXJXJXJXJXJXJXJXJXJXJXJXJXJXJXJXJXJX",
"JXJXJXJXJXJXJXJXJXJXJXJXJXJXJXJXDXAXHXJXGX{.o 5 < # i 1 # 1 # 6 i # = % 1 f = = < + Z GXJXJXZXGXJXJXJXJXJXJXJXJXJXJXJXJXJXJXJXJX",
"JXJXJXJXJXJXJXJXJXJXJXJXJXJXJXJXHXHXFXZXGX[.  6 6 < l r < t = f f = r < r l 1 6 6 + B GXDXJXJXJXJXJXJXJXJXJXJXJXJXJXJXJXJXJXJXJX",
"JXJXJXJXJXJXJXJXJXJXJXJXJXJXJXJXDXJXJXZXGX|.  2 = # g 5 # 5 % t t # 6 - 5 f # 5 3 + V GXZXJXJXGXJXJXJXJXJXJXJXJXJXJXJXJXJXJXJXJX",
"JXJXJXJXJXJXJXJXDXHXHXHXFXJXJXFX#.v C Z z @XrXeX1XiXiXiX1X1X1XiXiX1X<XiXUX1X<XuX,XpXuXn @.B B @.zXGXSXGXJXbXHXHXJXJXJXJXJXJXJXJX",
"JXJXJXJXJXJXJXJXDXDXZXHXJXFXFXPXA + , 4   oXMXHXAXAXHXHXAXAXAXFXPXFXSXHXAXGXCXFXkXGXyX+ , + + > pXFXFXJXJXAXAXbXJXJXJXJXJXJXJXJX",
"JXJXJXJXJXJXJXJXHXHXJXJXJXFXZXJXA # u r   oXFXMXSXDXDXDXSXSXSXDXHXAXBXGXHXBXkXSXCXJXdX1 u i t 9 nXPXZXPXHXJXJXHXJXJXJXJXJXJXJXJX",
"JXJXJXJXJXJXJXJXSXSXGXNXGXGXGXJXk o # # o |.GXGXFXPXPXPXFXFXFXPXHXPXIXFXFXFXAXAXAXmXyX- * * 5 1 NXGXGXGXNXJXJXnXJXJXJXJXJXJXJXJX",
"JXJXJXJXJXJXJXJXJXGXBX}.oXoX XoX#.#.#.#.#.:X7X7X8X0X0X0X0X0X0X0X8X8X8X0XqXlXcXcXbXnXdXD L P D D  X X XoX}.fXGXJXJXJXJXJXJXJXJXJX",
"JXJXJXJXJXJXJXJXFXGX>X: @ ; ; ; kXGXGXDXGX0Xb.V.V.V.V.V.V.V.V.V.m.m.B.B.L.^.2X2XoX@X;X5.g.z.<.6.f = + % @ }.CXGXJXJXJXJXJXJXJXJX",
"JXJXJXJXJXJXJXJXJXGXiX4 $ 5 6 f sXAXxXzXIX9Xv.Z.B.S.S.S.B.B.S.S.I.D.D.C.S.).uXrXaX>X-X[ &.-.} 2.l 1 1 t ; @XGXPXJXJXJXJXJXJXJXJX",
"JXJXJXJXJXJXJXJXAXGXsX4 # , # r zXFXDXvXGX7XM.Z.S.S.S.S.S.S.S.S.E.D.F.Z.n.).tX%X+X*X;X<.u.j.w.t.l , * < o oXJXPXJXJXJXJXJXJXJXJX",
"GXJXJXcXJXNXiXlXgXzXrXA m k m z lXCXkXMXmX8XB.I.S.I.I.I.S.B.B.I.(././.`.(.3X&XyX;X;X-Xl.2.g.a.d.D b b a b OXcXUXlXiXpXJXnXJXJXBX",
"SXAXJXJXJX}.d ; 7 ; #.fXGXBXVXGXtXuXrXrXiX^.m.S.K.E.R.R.I.I.U.R.CXVXIXIXjX~.<.1.,.5.l.;.-.y.8.k.3.4.,.3.4.D 8 > 7 d Z FXZXJXJXDX",
"JXAXPXPXGX#.@ = 3   N GXZXPXAXnXuXtX#X#X1X).L.Y.N.S.I.I.S.A.N.M.lXHXAXFXJX5X7.j.-.=.h.p.p.j.w.j.u.q.-.u.b.L # u % o M GXJXJXJXJX",
"JXFXJXJXGX#.$ r 3 % G GXnXPXPXMXiXyXrXtX1X~.L.n.V.K.U.K.M.B.M.M.jXHXbXvXGX!.} j.-.} t.p.u.0.*.u.%.y.} } k.P - 7 r = N GXJXHXJXJX",
"DXPXJXFXGX$.# 2 i $ Z GXAXZXxXZX6X1X2X2X;X)./.B.m.K.K.B.m.m.B.K.jXPXAXDXHX-X:.u.3.5.l.q.-.y.| k.g.f.d.1.,.I 1 $ 2 < N GXJXJXJXJX",
"FXJXJXnXGX[.t l h 4 F SXJXZXGXGX).`.`.(.(.8XjXqXqXjXwX6X;X5X<X<X6XdXpXpXxX1X:X;X-X:X!.z.;.s.r.g.g.=.;.p.3.U h x p t V GXJXJXJXDX",
"SXJXJXFXGX'.% < > $ #.GXFXJXBXhXP.m.N.n.V.8XmXFXPXPXMXUXyXyXuX*X=XtXrX>X2X>XyXrXtXyX;X5.%.u.0.1.e.| e.p.z.D o & 6 $ m BXFXJXJXGX",
"FXJXHXnXJX#.% t 8 + V GXxXJXGXBX/.K.Y.Z.C.7XGXkXBXBXgX,X@X>X,XrX,X:XiXuX1XyXuX@X#X,X-X,.%.j.t.y.u.h.0.-.d.H * 6 6 $ M GXJXPXZXZX",
"SXJXJXPXGX#.  # q X M GXFXPXVXGXP.n.n.G.m.7XFXJXJXPXnXuXrXrXyXtXyXyXyXyXyXyXyXyX*XrX;XO.>.1.u.u.,.2.1.i.5.S * $ = = N FXAXGXVXGX",
"@X|.|.}.}.}.#.[.$.]..X0X9X8X9X9X9X7X7X7X7X7X8X8X7X8X9X3X!.~.~.-X3X~.~.~.~.3X~.~._._._.5.>.e.k.k.z.d.p.p.x.o.S I P S @. XOX|..X X",
"6 . % $ ;  XJXJXFXmX0XP.V.K.L.J.VXPXPXGXVX7XH.F.n.B.B.B.m.N.B.B.B.B.N.N.B.K.B.N.n.V.G.` ` ` / +.k.t.0.9.h.x.>.z.f.,.X.a w O - O ",
"v < p 2 o |.JXMXAXFXqXm.n.Z.Z.T.qXAXbXSXPX7Xn.Z.G.M.T.T.S.S.I.K.T.T.S.F.T.T.T.S.Z.D.E.} [ [ _ ' >.=.9.} w.h.-.u.-.-.| e y , p s ",
"d % < 2 # .XGXIXxXFXqXb.S.F.D.T.qXFXSXvXJX8Xn.D.C.D.Y.S.A.C.A.S.I.A.A.A.S.I.S.A.N.H.W.( T Y Y Y 2.;.;.%.e.x.=.-.w.a.X.e 7 > > $ ",
"n d i p 6 $XVXIXvXHXqXJ.R.E.U.R.kXmXMXvXZX9Xm.I.U.R.R.R.U.I.U.R.R.R.U.U.R.R.R.U.S.U.J.' ] Q Q X.g.2.i.;.r.x.s.a.e.,.O.f d f 8 g ",
"z t 6 r = .XVXGXSXFXqXP.K.K.U.P.2X*X*X,XiX3XI.S.N.B.S.B.N.C.B.S.S.B.N.B.S.S.S.N.C.I.J.[ _ ' ' ..x.;.i.q.e.x.t.d.t.=.O.u 7 i 2 d ",
"p * < r o oXGXFXAXFX0XL.n.A.A.V.4X,X,X>X2X).Y.Z.B.K.U.I.B.N.M.K.U.K.B.B.I.U.I.B.A.M.H.) ) ) ) ` x.} 0.u.w.d.9.9.p.-.5.e = , e w ",
"h # 5 5 ;  XGXFXcXPXqXH.Z.D.S.N.yXrXtXrX1X).b.n.C.A.S.S.A.A.A.F.S.N.A.C.S.Y.F.C.S.B.b.) ) T K ..d.*.-.*.q.t.*.*.q.1.~ y < < 4 < ",
"l < 6 5 = |.GXZXSXVXqXJ.I.R.P.L.<X2X1X1X<X9X/.Y.S.S.U.U.I.S.S.I.U.M.S.B.I.T.M.S.S.L.J.[ [ ) ( ] z.e.a.e.z.x.t.d.=.1.X.i 6 9 t 6 ",
"v t f i 7 oXGXPXmXmXIX:X;X<X2X4Xc.5.Q.Q.l.J.S.n.B.L.U.U.K.K.K.L.L.L.I.K.L.R.K.I.S.U.J.[ [ [ [ [ | [ } [ | 5.[ [ | &...f t p s i ",
"g % < = @ }.BXnXCXIXnX>X,XrXrX1Xk.[ <.>.} H.T.F.B.B.I.K.B.B.B.K.K.V.S.M.M.U.M.S.C.I.J.( R _ _ _ ] R ` T (  .R T ^ E H w = , = , ",
"h = 6 5 ;  XGXFXkXVXNX@X,X%X#X,XW.=.w.0.*.H.Y.S.C.S.I.I.A.A.A.S.S.N.A.A.S.Y.F.D.C.I.H.T J T R R ] R T J R ] R T ( ) U d 6 1 5 1 ",
"h = 5 5 $ |.GXnXmXmXMX*XyXtX*XiXx.9.u.u.u.V.S.B.A.I.T.T.I.S.S.Y.T.B.S.S.I.R.I.D.S.L.J.[ [ _ _ ]  .T ) T _ X.( _ ^ E H y < , = < ",
"v t f i 7 @XGXJXAXFXCX!.!.!.!.^.c.y.y.y.z.c.z.z.d.x.x.x.f.d.f.x.x.s.g.d.x.W.f.d.f.f.c.:.;.:.} y.,.:.=.:.<.k.{ [ o.4.~ j h p g h ",
"l < 6 5 $ |.GXZXBXVX0X| *.q.=.1.d.-.-.-.<.| J Y Y R Q Q R Y R Q ' J Y J Q ] R T J R | [ i.-.*.t.a.-.;.=.<.<.` ) ^ E H y 1 3 4 6 ",
"l > 2 5 @ oXGXZXNXFXqX<.p.p.-.;.p.-.u.1.i.>.T T ) (  ._ ) ) T ' ' R ) E ( { T E ) ) <.e.u.u.-.q.i.e.q.-.i.| T [ ` ^ ~ u 6 4 ; 4 ",
"i $ $ + @ oXGXGXGXPXwX4.} } -.s.s.-.-.*.<.| T ) T R ] ( T ) T ' ' T E T ( ] R E J J | } *.q.*.y.;.>.=.&.a.o.K _ [ R H 3   = < , ",
"V m m n N  X,XiXsXyX4Xz.d.t.d.z.z.<.<.<.k.k.| | } { o.| } } [ o.o.{ } [ | 5.{ } | | k.5.>.y.<.k.x.z.f.p.x.O.P I Q H U @.m N m z ",
"GXBXGXGXBX[.0 7 ; : D :.w.t.d.k.{ E ) _ { 5.>.>.e.e.z.r.e.a.>.k.z.<.a.;.r.z.,.e.e.<.k.| [ [ `  .d.e.9.-.:.P u u u * V GXAXJXPXJX",
"JXIXZXJXBX#.o 5 9 ; D 3.0.9.-.:.' J Y E T <.=.-.-.-.a.;.-.1.*.e.a.-.-.-.q.d.;.-.-.%.>.` T ) T _ d.e.p.u.3.I r 1 5 O M JXFXPXAXPX",
"ZXPXJXJXGX[.$ < > o c ;.*.w.u.g.| Y _ ) ` r.a.1.-.*.d.0.-.-.*.q.i.*.0.-.9.d.-.-.1.;.y.[ E ) E ' ;.=.-.1.<.P = # 2 , N VXBXGXGXGX",
"GXJXJXnXSX'.4 6 9 ; D 3.w.w.%.3.{ J _ ( ( 7.t.*.i.q.x.d.i.i.q.f.h.q.i.0.t.x.q.i.u.;.k.' T _ R Q z.r.e.i.k.U t p 3 < C CXGXGXGXvX",
"GXGXJXJXGX'.4 f 9 d D z.t.h.q.z.o.R  . . .l.x.w.e.e.x.k.e.d.e.z.x.e.d.e.r.x.y.t.u.e.l.o.] o.{ X.| ] ` } o.P y p f s V IXJXAXHXHX",
"JXFXJXJXGX'.. i 7 o c 5.&.*.t.q. .^ ` J ` y.t.w.0.9.f.e.0.p.9.w.h.9.w.9.w.h.w.0.0.=.k.( ( T R ( o.R ` ( ..c = : 2 % N GXFXJXPXJX",
"DXFXJXJXGX[.  6 p , c s.&.u.*.u.' Y E Y E =.0.-.1.-.i.;.-.1.%.-.i.&.-.&.-.i.%.-.u.*.e.) E E E E [ E E E ' S 3 t < + B GXJXJXZXJX",
"JXJXJXFXzX'.& ; + - c 5.i.x.| x.X.W ! Y E ,.i.1.u.;.f.e.;.i.-.a.s.;.2.;.3.s.;.2.u.0.z.) ) ) _ ' X.{ { ' ~ c + + ; & M NXJXJXFXJX",
"JXJXJXJXGXiX[.}.|.OXXXP L P c U O.Q { Q ' k.k.e.f.k.c.k.r.f.y.k.z.r.s.e.k.z.r.s.d.y.l.] ] ] ....I c c c v $.|.OX}.'.oXJXFXJXDXGX",
"FXHXJXJXJXGXSXGXHXAXpX6 , * - r ..J ( J ( 8.y.9.0.w.f.y.w.w.9.t.f.9.0.;.e.f.9.0.q.>.k.' ' Q Q ] h # * - $ oXJXHXGXGXGXJXSXJXGXZX",
"JXJXJXFXFXFXFXSXvXDXxX> 8 < 6 9 ' T ) E ) e.w.0.u.0.j.u.0.p.0.p.p.u.u.u.u.p.u.u.1.&.r.E E E E W l 1 r r + @XGXnXJXJXJXFXZXJXJXDX",
"JXFXJXJXJXJXJXHXVXSXpX  + % @ 2 ] R _ E _ ,.e.0.1.;.f.e.;.i.-.a.s.;.i.;.e.f.;.2.-.%.k.T E E W Q i # + +    XVXGXJXJXJXJXJXJXJXHX",
"JXFXJXJXFXHXJXFXGXmXnXm C V m V U I K H K O.o.{ { { O.X.X.{ ] X.O.X.X.X.O.O.X.X.|  .8.+.K K U U V V m N M iXnXPXJXHXHXJXJXHXPXJX",
"JXJXJXJXJXJXJXJXJXJXJXJXJXJXJXFXz = t 5 6 g = 6 6 < h 6 < t = f f = t = 6 h < 6 5 = l t 4 t = f xXFXJXJXJXJXJXFXJXJXJXJXJXJXJXJX",
"JXJXJXJXJXJXJXJXJXJXJXJXJXJXJXFXz = 6 1 6 h < 5 1 < h 6 < r * i f = r < 6 h < 6 5 < h t 1 t = i xXGXJXJXJXJXJXFXJXJXJXJXJXJXJXJX",
"JXJXJXJXJXJXJXJXJXJXJXJXJXJXJXJXl # = = 1 i = # 1 < i 6 < 6 = i t # 1 # < i # < = # i 5 # 1 # 6 xXZXJXGXJXJXJXJXJXJXJXJXJXJXJXJX",
"JXJXJXJXJXJXJXJXJXJXJXJXJXJXJXJXm s g g g z g g 0 7 k s 7 d 7 g j d g d g z g g g g z k g k s j ZXFXJXJXJXJXJXJXJXJXJXJXJXJXJXJX",
"JXJXJXJXJXJXJXJXJXJXJXJXJXJXJXJXBXgXzXzXfXzXzXfXNXNXVXCXNXCXvXBXvXfXfXgXfXNXfXfXfXfXNXzXfXfXgXzXFXJXJXJXJXJXJXJXJXJXJXJXJXJXJXJX",
"JXJXJXJXJXJXJXJXJXJXJXJXJXJXJXJXJXJXJXJXPXJXJXJXFXJXJXJXJXJXFXDXJXJXJXJXJXJXJXJXJXJXJXJXJXJXJXJXJXJXJXJXJXJXJXJXJXJXJXJXJXJXJXJX",
"JXJXJXJXJXJXJXJXJXJXJXJXJXJXJXJXJXHXHXJXAXFXJXHXJXJXHXJXJXJXJXFXJXJXHXHXPXHXJXPXHXJXHXHXHXHXJXPXJXJXJXJXJXJXJXJXJXJXJXJXJXJXJXJX",
"JXJXJXJXJXJXJXJXJXJXJXJXJXJXJXJXJXHXDXHXFXHXJXDXDXGXDXGXJXDXJXSXHXJXFXHXHXFXJXHXHXJXFXHXHXFXJXHXJXJXFXJXJXJXJXJXJXJXJXJXJXJXJXJX"
};
