/* XPM */
static char *_daeccd910884fa3e3fd8ffdb6634f572cacNlr1dXhT8UyG[] = {
/* columns rows colors chars-per-pixel */
"64 64 162 2 ",
"   c #241707",
".  c #261909",
"X  c #2B1D0D",
"o  c #301F0D",
"O  c #2F200D",
"+  c #31210F",
"@  c #3C250D",
"#  c #2E2110",
"$  c #342412",
"%  c #3C2611",
"&  c #372815",
"*  c #3E2914",
"=  c #3B2C1B",
"-  c #3D301F",
";  c #3E3120",
":  c #421E0A",
">  c #44220D",
",  c #472410",
"<  c #492612",
"1  c #422B14",
"2  c #4C2915",
"3  c #442E19",
"4  c #463523",
"5  c #483725",
"6  c #493929",
"7  c #523B25",
"8  c #533D28",
"9  c #683E25",
"0  c #6A3F2F",
"q  c #793F31",
"w  c #6E442B",
"e  c #6C4131",
"r  c #7F4537",
"t  c #7A4E33",
"y  c #744939",
"u  c #4F3B7D",
"i  c #513B7D",
"p  c #59447F",
"a  c #844236",
"s  c #814638",
"d  c #89473B",
"f  c #864C3E",
"g  c #8B4A3E",
"h  c #805334",
"j  c #8B5436",
"k  c #82543A",
"l  c #8E5739",
"z  c #8F5C3D",
"x  c #915D3E",
"c  c #8B4D40",
"v  c #8B5042",
"b  c #8F5C41",
"n  c #925E43",
"m  c #946044",
"M  c #9B6345",
"N  c #966449",
"B  c #9C664A",
"V  c #9C694D",
"C  c #9E715E",
"Z  c #A16946",
"A  c #A26A4B",
"S  c #A16B51",
"D  c #A26D5D",
"F  c #A3765F",
"G  c #AC755C",
"H  c #AE785E",
"J  c #B27B5E",
"K  c #A17362",
"L  c #AC7563",
"P  c #AA7D65",
"I  c #A77C6C",
"U  c #AC7E6B",
"Y  c #B37B64",
"T  c #B57D6A",
"R  c #B27E71",
"E  c #AE806C",
"W  c #B48067",
"Q  c #B3846D",
"!  c #BB866C",
"~  c #B6896C",
"^  c #BC886F",
"/  c #AC8171",
"(  c #B68471",
")  c #BA8573",
"_  c #B68872",
"`  c #BD8C73",
"'  c #BE8A79",
"]  c #BF9076",
"[  c #BF917B",
"{  c #C28C72",
"}  c #C4947E",
"|  c #4E3A83",
" . c #4E3988",
".. c #523C85",
"X. c #543E86",
"o. c #543D85",
"O. c #523C84",
"+. c #533D89",
"@. c #553F89",
"#. c #533C8A",
"$. c #554083",
"%. c #554284",
"&. c #5E4586",
"*. c #5B4485",
"=. c #5C4885",
"-. c #544088",
";. c #564089",
":. c #56408B",
">. c #57418C",
",. c #56408B",
"<. c #58428B",
"1. c #5B4589",
"2. c #5D498A",
"3. c #664E88",
"4. c #675293",
"5. c #695497",
"6. c #675199",
"7. c #6A559A",
"8. c #69539B",
"9. c #6F5B98",
"0. c #C39681",
"q. c #C29580",
"w. c #C69680",
"e. c #C79781",
"r. c #C39681",
"t. c #C89882",
"y. c #D2D0D5",
"u. c #DDD7D7",
"i. c #DEDCE1",
"p. c #E0DEE3",
"a. c #E1DFE4",
"s. c #E3E3E4",
"d. c #EBE9E7",
"f. c #E5E3E8",
"g. c #E5E3E8",
"h. c #EEE8E8",
"j. c #EDEBEB",
"k. c #F5EFEF",
"l. c #F2EDEC",
"z. c #EFEDF0",
"x. c #F3F5F2",
"c. c #F7F7F5",
"v. c #F6F7F3",
"b. c #F7F9F6",
"n. c #FAF9F5",
"m. c #FAF9F7",
"M. c #F9F8F6",
"N. c #FAFAF7",
"B. c #F9F7F8",
"V. c #FBF9FA",
"C. c #FDF9F8",
"Z. c #FEFAF9",
"A. c #FAFCF9",
"S. c #FEFDF9",
"D. c #FDFCFA",
"F. c #FCFAFD",
"G. c #FFFEFC",
"H. c #FFFEFD",
"J. c #FFFFFD",
"K. c #FFFDFF",
"L. c #FFFEFF",
"P. c #FEFDFD",
/* pixels */
"O O O O O O O O X X X X X X X X X X X X # # + + X X X X X X X X                 . . . . . . . . X X X X X X X X X X X X X X X X ",
"O O O O O O O O X X X X X X X X X X X X # # + + X X X X X X X X                 . . . . . . . . X X X X X X X X X X X X X X X X ",
"O O O O O O O O X X X X X X X X $ $ X X X X X X X X . . . . X X                 . . . . . . . . X X X X X X X X X X X X X X X X ",
"O O O O O O O O X X X X X X X X $ $ + o X X X X X X . . X . X X . . . . . . . . . . . . . . . . X X X X X X X X X X X X X X X X ",
"O O O O O O O O X X X X X X X X $ + X X X # o X X X X X X X X X . . . .         . . . . . . . . X X X X X X X X X X X X X X X X ",
"O O O O O O O O X X X X X X X X + + X X # # + + X X X X X X X X . . . . . . . . . . . . . . . . X X X X X X X X X X X X X X X X ",
"O O O O O O O O X X X X X X X X + X X X + + + + X X . X X X X X . . . . . . . . . . . . . . . . X X X X X X X X X X X X X X X X ",
"O O O O O O O O X X X X X X X X + X X X + + + + X X . . . X X X . . . . . . . . X X X X X X X X X X X X X X X X X X X X X X X X ",
"X X X X X X X X X X X X X X X X X X X X X X X X $ $ $ $ $ $ $ $ 1 1 1 1 1 1 1 1 1 1 1 3 3 1 1 1 X X X X X X X X X X X X X X X X ",
"X X X X X X X X . . . . . . . . X X X X X X X X + + + + $ $ $ $ 1 1 1 1 1 1 1 1 * * 1 1 1 1 * * . . . . . . . . X X X X X X X X ",
"X X X X X X X X # # # # # # # # # # # # # # # # $ $ $ $ $ & & & 1 1 1 1 1 1 1 1 3 3 3 3 3 3 3 3 # # # # # # # # X X X X X X X . ",
"X X X X X X X X X X X X X X X X . . . . . . . . X X X + o + + + 1 1 1 1 1 1 1 1 % % % * * % % % X X X X X X X X X X X X X X X . ",
"X X X X X X X X X X X X X X X X O O O O O O O O $ $ $ $ $ $ $ $ 1 1 1 1 1 1 1 1 1 1 3 3 3 3 1 * X X X X X X X X X X . X X X X . ",
"X X X X X X X X O O X X X X X X O O O O O O O O $ $ $ $ $ $ & & 1 1 1 1 1 1 1 1 1 1 3 3 3 3 1 * # X X X X X # # X X . . X X X X ",
"X X X X X X X X X X X X X X X X . . . . . . . . X X X o o o + + @ @ @ @ @ @ @ @ @ % % % % % % @ . . . . . . . . X X X . X X X X ",
"X X X X X X X X - - - - - - - - ; ; ; ; ; ; ; ; 4 4 4 5 5 5 5 5 7 7 7 7 7 7 7 7 7 8 8 8 8 8 8 7 = = = = = = = = X X X . X X X X ",
"X X o X X X . = ~ ~ ~ ~ ~ ~ ~ ~ ` ` ` ` ` ` ` ` w.e.e.t.t.w.w.w.` ` ` ` ` ` ` ` ` ` ` ` ] ] ` ` H G H H G H H S $ $ $ $ $ $ $ + ",
"$ X o X $ X . = ~ ~ ~ ~ ~ ~ ~ ~ ` ` ` ` ` ` ` ` } } w.w.w.w.} } ` ` ` ` ` ` ` ` ` ` ` ` ] ] ` ` H G H H G H H S & $ $ $ & & $ $ ",
"X . X . X X   = ~ ~ ~ ~ ~ ~ ~ ~ ` ` ` ` ` ` ` ` } } } } } } } } ` ` ` ` ` ` ` ` ` ` ` ` ] ] ` ` H G G H G H G V $ $ $ $ $ $ $ + ",
"X . o X o o . = ~ ~ ~ ~ ~ ~ ~ ~ ` ` ` ` ` ` ` ` } } } } } } } } ` ` ` ` ` ` ` ` ` ` ` ` ] ] ` ` H G H H G H H S & $ $ $ $ $ $ + ",
"$ X $ X $ $ . 4 ~ ~ ~ ~ ~ ~ ~ ~ ` ` ` ` ` ` ` ` } } w.w.w.w.} } ` ` ` ` ` ` ` ` ` ` ` ` ] ] ` ` H G H H G H H S = & & & & & & $ ",
"X   X . X .   = ~ ~ ~ ~ ~ ~ ~ ~ ` ` ` ` ` ` ` ` } } w.w.w.w.} } ` ` ` ` ` ` ` ` ` ` ` ` ] ] ` ` H G H H G H H S & $ $ $ $ $ $ + ",
"X . X . X X   = ~ ~ ~ ~ ~ ~ ~ ~ ` ` ` ` ` ` ` ` } } } } } } } } ` ` ` ` ` ` ` ` ` ` ` ` ] ] ` ` H G H H G H H S $ $ $ $ $ $ $ + ",
"= & = & = = $ 6 ~ ~ ~ ~ ~ ~ ~ ~ ` ` ` ` ` ` ` ` } } } } } } } } ^ ^ ^ ^ ^ ^ ^ ^ ` ` ` ` ] ] ` ` H G G H G H H A = = = = = = = = ",
"P P P P P P P P Q _ _ _ _ _ Q Q U U U U U U U U U E E E E E E U C C C C C C C K ` ) ) ) ` ` ) ) A A A S S A A A V V V V V V V V ",
"P P P P P P P P E E Q Q Q Q E E P P P P P P P P U E E E E E E U C C C C C C C K ) ) ! ) ) ) ) Q V V V V V V V V V V V V V V V V ",
"P P P P P P P P _ _ _ _ _ _ Q Q P P P P P P P P U E E E E E E U C C C C C C C K ^ ^ ^ ^ ` ` ^ ! S S S S S S S S V V V V V V V V ",
"P P P P P P P P Q Q Q Q Q Q Q Q P P P P P P P P U E E E E E E U C C C C C C K K ` ^ ^ ` ` ` ) ! N N N N N B N B V V V V V V V V ",
"P P P P P P P P Q Q Q Q Q Q Q Q P P P P P P P P U E E E E E E U C C C C K K K K ` ^ ^ ^ ` ` ^ ! V V V V S S S S V V V V V V V V ",
"P P P P P P P P Q Q Q Q _ Q Q Q U U U U U U U U U E E E E E E U K C C C K K K K ` ` ) ` ` ` ) ) V V V V S S V V V V V V V V V V ",
"P P P P P P P P U E E E E E E U I I I I I I I I U E E E E E E U K C C C F K K K _ _ _ _ _ _ _ _ N N N N N N N N V V V V V V V V ",
"P P P P P P P P [ [ } } } } [ [ K K K K K K K K U E E E E E E U K K C C C K K K / I I I / / I I H H P P P P P P V V V V V V V V ",
"! Q ! Q _ _ E 0.n.G.n.V.B.F.G.p.| O.O.O.;.O.i &.Y Y T T Y T T T ` ) ` ` ! ` ' R $.O.;.O.+.o.O.5.x.G.v.n.S.C.C.h.P P P P P P P P ",
"! W Q Q Q Q P 0.S.G.G.G.G.G.G.f.| ;.O.+.>.o.O.&.Y Y Y Y Y Y Y Y ) Q ! ^ Q ` ' U ;.O.1.+.;.+.O.7.A.G.G.G.G.G.G.k.P P P P P P P P ",
"W W Q Q Q Q U 0.v.S.n.F.V.F.F.i.| +.| #.@.O.| 1.Y Y Y T T T T T ` ) ) ` ! ` ' R O.| +.#.#.O.| 6.v.G.n.S.S.C.S.l.P P P P P P P P ",
"! Q ! Q Q Q E 0.C.G.G.G.G.G.G.s.| +. .#.@.O.| 1.Y Y Y Y T T T T ` ) ` ` ^ ` ' R O.| +.#.#.#.| 6.n.G.S.G.G.G.G.l.P P P P P P P P ",
"! W ! Q _ _ E 0.n.G.G.G.G.G.G.s.| +.+.#.>.+.O.1.Y Y Y Y Y Y Y Y ` ! ^ ) ! ` ' T o.O.;.#.@.+.O.8.b.G.V.S.G.S.G.l.P P P P P P P P ",
"! Q ! Q _ _ E 0.n.G.S.G.G.G.G.a.| O.| O.+.O.i *.Y Y T T Y T T T ` ) ` ` ^ ` ' R O.u o.O.O.O.u 4.b.G.V.S.G.S.G.l.P P P P P P P P ",
"W Y W Q Q Q P } S.G.G.G.G.G.G.f.u $.O.O.;.O.i *.Y Y T T Y T Y T ` ! ) ` ! ` ' R i i ;.O.O.O.u 4.V.G.S.G.G.G.G.k.P P P P P P P P ",
"W P W U Q Q P [ d.l.d.j.d.j.z.y.%.2.1.1.2.*.p 3.G L L L L G G L Q P Y W P Q Q L =.%.2.*.1.*.$.9.s.j.s.d.h.d.h.u.F F F F F F F F ",
"M M M M M M M B Y Y Y Y Y Y Y T R ( R T ( ) R L e e e e e e e e e e e e e e 0 y ! ^ ^ ! ! ^ ! W A A A A A A Z Z h h h h h h h h ",
"M M M M M M M B J J J Y J Y Y Y ) ) ) ) ) ' ) T e e e e e e e e e e 0 0 e e 0 y { { { ^ { { { ! A Z Z Z A A Z M h h h h h h h h ",
"M M M M M M M B J Y Y Y Y Y Y Y T R R T ( ( T L e e e e e e e e 0 e 0 0 e 0 0 y ! ^ ! ! ! ^ ! W Z Z Z Z Z Z Z M h h h h h h h h ",
"M M M M M M M Z Y Y Y Y Y Y Y T ) ) ) ( ) ) ( T 0 0 0 0 0 0 0 0 0 e 0 0 e 0 0 y ^ { ^ ^ ^ { ^ ! Z Z Z Z Z Z Z M h h h h h h h h ",
"M M M M M M M Z J J J Y Y Y Y Y ( ) ( ( ( ) ( U 0 0 0 0 0 0 0 0 0 e 0 0 e 0 0 y ^ ^ ^ ^ ^ { ^ ! Z Z Z Z A A Z M h h h h h h h h ",
"M M M M M M M Z J Y Y Y Y Y Y T ( ( ( T ( ) ( U e e e e e e e e 0 e 0 0 e 0 0 y ^ ^ ^ ! ^ ^ ^ W Z Z Z Z A A Z M h h h h h h h h ",
"M M M M M M M B J Y Y Y Y Y Y T ' ' ) ) ' ' ) T e e e e e e e e e e 0 0 e e 0 y { { { { { { { ^ Z Z Z Z Z Z Z M h h h h h h h t ",
"M M M M M M M B G G G H H L Y L L L L L L U L D e e e e e e e e e e e e e w 0 y Y Y Y H J Y Y G Z Z M M Z Z M M h h h h h h h t ",
"n n n n n n n n M x M M m M M l : > : : , : : 2 f f f f f f f f f c c f f c f s , > > , > > , 2 x x x x x x x z k k k k k k k k ",
"m m m m m m m m n x n m x M M j : > : : , : : 2 f f f f f f f f f f f f f f f r , > > , > > , 2 x x x x x x x z k k k k k k k k ",
"n n n n n n n n M x m M n M M j : > : : , : : 2 g g g g g g g g g c c g g c g a , > > , > > , 2 z x x x x x x z k k k k k k k k ",
"b b b b b b b b m x m M x M M j : > : : , : : 2 g g g g g g g g g c c g g c g a , > > , > > , 2 z x x x x x x z k k k k k k k k ",
"n n n b n n n n n x x n x n n j : > : : , : : 2 g g g g g g g g g g g d g g d a , > > , > > , 2 z x x x x x x z k k k k k k k k ",
"m m m m m m m m M x M M n M M j : > : : , : : 2 c c c c c c c c g c c g g c g a , > > , > > , 2 z x x x x x x z k k k k k k k k ",
"n n n n n n n n M n M M m M M l : > : : , : : 2 c c c c c c c c f c c f c v f s , > > , > > , 2 z x x x x x x z k k k k k k k k ",
"b b b b b b b b x l x x x x x j : > : : , : : 2 s s s s s s s s r s s r s s r q , > > , > > , 2 z x x x x x x z k k k k k k k k ",
"w w w w w w w w w w w w w w w 9 > > > > > > > > > > > > > > > > > > > > > > > > > > > , > > > , k k k k k k k k t t t t t t t t ",
"w w w w w w w w w w w w w w w 9 > > > > > > > > : : : : : : : : > > > > > > > > > > > , > > > , k k k k k k k k t t t t t t t t ",
"w w w w w w w w w w w w w w w 9 > > > > > > > > : : : : : : : : > > > > > > > > , > > , > > > 2 k k k k k k k k t t t t t t t t ",
"w w w w w w w w w w w w w w w 9 > > > > > > > > : : : : : : : : > > > > > > > > , > > , , > > 2 k k k k k k k k t t t t t t t t ",
"w w w w w w w w w w w w w w w 9 > > > > > > > > : : : : : : : : > > > > > > > > , > > , , > , 2 k k k k k k k k t t t t t t t t ",
"w w w w w w w w w w w w w w w 9 > > > > > > > > : : : : : : : : , , , , , , , , , > , , , > , 2 k k k k k k k k t t t t t t t t ",
"w w w w w w w w w w w w w w w 9 > > > > > > > > : : : : : : : : , , , , , , , , , > , , , > , 2 k k k k k k k k t t t t t t t t ",
"w w w w w w w w w w w w w w w 9 > > > > > > > > > > > > : : : > , , , , , , , , , > , , , > , 2 k k k k k k k k t t t t t t t t "
};
